<svg xmlns="http://www.w3.org/2000/svg" viewBox="0 0 512 512"><path d="M256 277.333c-64.698 0-117.333 52.635-117.333 117.333S191.302 512 256 512s117.333-52.635 117.333-117.333S320.698 277.333 256 277.333zm42.667 128h-32v32c0 5.896-4.771 10.667-10.667 10.667s-10.667-4.771-10.667-10.667v-32h-32c-5.896 0-10.667-4.771-10.667-10.667S207.438 384 213.333 384h32v-32c0-5.896 4.771-10.667 10.667-10.667s10.667 4.771 10.667 10.667v32h32c5.896 0 10.667 4.771 10.667 10.667s-4.771 10.666-10.667 10.666z" fill="#fff"/><path d="M501.333 170.667h-85.986l-120.4-166.2c-3.424-4.794-10.086-5.904-14.88-2.479l-17.359 12.401c-4.794 3.424-5.904 10.086-2.479 14.879l102.434 141.398h-221.75L243.345 29.268c3.424-4.793 2.315-11.454-2.479-14.879L223.507 1.988c-4.794-3.424-11.456-2.315-14.88 2.479l-120.402 166.2H10.667A10.66 10.66 0 0 0 0 181.333v21.333a10.66 10.66 0 0 0 10.667 10.667h21.228l54.699 156.281c2.51 7.146 6.833 13.688 13.219 19.99 2.948 2.896 7.281 3.823 11.188 2.406a10.634 10.634 0 0 0 6.927-9.104C123.927 311.74 184.573 256 256 256c71.438 0 132.083 55.74 138.073 126.906A10.634 10.634 0 0 0 401 392.01c1.208.448 2.458.667 3.698.667 2.75 0 5.458-1.073 7.49-3.073 6.385-6.302 10.708-12.844 13.219-19.99l54.699-156.281h21.228a10.66 10.66 0 0 0 10.667-10.667v-21.333a10.662 10.662 0 0 0-10.668-10.666z" fill="#fff"/></svg>