<svg xmlns="http://www.w3.org/2000/svg" viewBox="0 0 512 512"><circle cx="256" cy="256" r="256" fill="#ffb74f"/><path d="M512 256c0-21.856-2.746-43.07-7.899-63.322L391.426 80.004H120.574v333.281l95.632 95.632A257.92 257.92 0 0 0 256 512c141.385 0 256-114.615 256-256z" fill="#fe880c"/><path fill="#fff" d="M120.57 80h270.85v324.89H120.57z"/><path fill="#fff5cb" d="M256 80h135.43v324.89H256z"/><path fill="#00cdb4" d="M120.57 383.72h270.85v29.563H120.57z"/><path fill="#00ac95" d="M256 383.73h135.43v29.562H256z"/><path fill="#fe990e" d="M162.78 193.85h186.44v26.979H162.78z"/><path fill="#e57409" d="M256 193.85h93.22v26.985H256z"/><path fill="#fe990e" d="M162.78 129.65h186.44v26.979H162.78z"/><path fill="#e57409" d="M256 129.65h93.22v26.985H256z"/><path fill="#fe990e" d="M162.78 258.05h186.44v26.979H162.78z"/><path fill="#e57409" d="M256 258.05h93.22v26.985H256z"/><circle cx="367" cy="369.91" r="63.07" fill="#0e6ef3"/><path d="M430.07 369.917c0 34.53-27.75 62.58-62.17 63.06v-126.12c34.42.48 62.17 28.53 62.17 63.06z" fill="#06459d"/><path fill="#fff" d="M396.281 339.283l-37.602 41.194-20.941-17.819-12.811 15.057 35.482 30.19 50.473-55.295z"/><path fill="#fff5cb" d="M410.88 352.607l-42.98 47.09v-29.32l28.38-31.09z"/></svg>