<svg height="511pt" viewBox="1 -9 511.99999 511" width="511pt" xmlns="http://www.w3.org/2000/svg"><path d="M459.586 448.195H12.375c-6.836 0-12.371-5.543-12.371-12.375V68.09c0-21.68 17.57-39.25 39.25-39.25h393.453c21.676 0 39.25 17.57 39.25 39.25v367.73c0 6.836-5.539 12.375-12.371 12.375zm0 0" fill="#d0f4ef"/><path d="M471.953 68.094v367.722c0 6.836-5.531 12.38-12.367 12.38h-37.527c6.832 0 12.375-5.544 12.375-12.38V68.094c0-21.688-17.575-39.25-39.25-39.25h37.53c21.673 0 39.24 17.562 39.24 39.25zm0 0" fill="#abe0da"/><path d="M471.953 68.094v60.027H0V68.094c0-21.688 17.578-39.25 39.262-39.25h393.453c21.672 0 39.238 17.562 39.238 39.25zm0 0" fill="#f72b2b"/><path d="M471.953 68.094v60.027h-37.52V68.094c0-21.688-17.574-39.25-39.25-39.25h37.532c21.672 0 39.238 17.562 39.238 39.25zm0 0" fill="#d61b1f"/><path d="M79.488 173.84H52.637a7.726 7.726 0 1 1 0-15.453h26.851a7.726 7.726 0 1 1 0 15.453zm82.535 0h-26.855c-4.266 0-7.727-3.461-7.727-7.727s3.461-7.726 7.727-7.726h26.855c4.266 0 7.727 3.46 7.727 7.726s-3.46 7.727-7.727 7.727zm82.532 0h-26.856c-4.265 0-7.722-3.461-7.722-7.727s3.457-7.726 7.722-7.726h26.856c4.27 0 7.726 3.46 7.726 7.726s-3.457 7.727-7.726 7.727zm82.535 0h-26.856a7.727 7.727 0 0 1 0-15.453h26.856c4.265 0 7.726 3.46 7.726 7.726s-3.46 7.727-7.726 7.727zm82.531 0H382.77a7.726 7.726 0 1 1 0-15.453h26.851a7.726 7.726 0 1 1 0 15.453zM79.488 212.691H52.637a7.726 7.726 0 1 1 0-15.453h26.851a7.726 7.726 0 1 1 0 15.453zm82.535 0h-26.855c-4.266 0-7.727-3.46-7.727-7.726s3.461-7.727 7.727-7.727h26.855a7.727 7.727 0 0 1 0 15.453zm82.532 0h-26.856c-4.265 0-7.722-3.46-7.722-7.726s3.457-7.727 7.722-7.727h26.856c4.27 0 7.726 3.461 7.726 7.727s-3.457 7.726-7.726 7.726zm82.535 0h-26.856c-4.265 0-7.726-3.46-7.726-7.726s3.46-7.727 7.726-7.727h26.856a7.727 7.727 0 0 1 0 15.453zm82.531 0H382.77a7.726 7.726 0 1 1 0-15.453h26.851a7.726 7.726 0 1 1 0 15.453zm0 0" fill="#628fb1"/><path d="M196.598 405.281a22.62 22.62 0 0 1-16.051-6.648l-39.727-39.727c-8.867-8.863-8.867-23.234 0-32.101 8.864-8.864 23.239-8.864 32.102 0l23.676 23.675 92.738-92.742c8.867-8.86 23.238-8.863 32.101 0 8.868 8.867 8.868 23.239 0 32.106L212.649 398.633a22.626 22.626 0 0 1-16.05 6.648zm0 0" fill="#f72b2b"/><path d="M84.285 60.121H69.934c-6.098 0-11.043-4.941-11.043-11.043V11.54C58.89 5.441 63.836.5 69.934.5h14.351c6.098 0 11.043 4.941 11.043 11.04v37.538c0 6.102-4.945 11.043-11.043 11.043zm103.133 0h-14.356c-6.097 0-11.039-4.941-11.039-11.043V11.54c0-6.098 4.942-11.039 11.04-11.039h14.355c6.098 0 11.039 4.941 11.039 11.04v37.538c0 6.102-4.941 11.043-11.039 11.043zm103.132 0h-14.355c-6.097 0-11.039-4.941-11.039-11.043V11.54c0-6.098 4.942-11.039 11.04-11.039h14.355c6.097 0 11.039 4.941 11.039 11.04v37.538c0 6.102-4.945 11.043-11.04 11.043zm103.13 0h-14.352c-6.098 0-11.043-4.941-11.043-11.043V11.54c0-6.099 4.945-11.04 11.043-11.04h14.352c6.097 0 11.043 4.941 11.043 11.04v37.538c0 6.102-4.946 11.043-11.043 11.043zm0 0" fill="#ffbd47"/><path d="M512 398.863c0 52.348-42.434 94.782-94.781 94.782s-94.781-42.434-94.781-94.782c0-52.343 42.433-94.777 94.78-94.777S512 346.52 512 398.863zm0 0" fill="#38aaff"/><path d="M485.383 398.863c0 37.649-30.52 68.164-68.164 68.164s-68.164-30.515-68.164-68.164c0-37.644 30.52-68.16 68.164-68.16s68.164 30.516 68.164 68.16zm0 0" fill="#d0f4ef"/><path d="M417.219 359.398a7.726 7.726 0 0 1-7.727-7.726v-9.41c0-4.266 3.461-7.727 7.727-7.727s7.726 3.461 7.726 7.727v9.41c0 4.27-3.46 7.726-7.726 7.726zm0 103.797a7.729 7.729 0 0 1-7.727-7.726v-9.41a7.726 7.726 0 1 1 15.453 0v9.41a7.729 7.729 0 0 1-7.726 7.726zm56.601-56.605h-9.41a7.725 7.725 0 0 1 0-15.45h9.41a7.723 7.723 0 0 1 7.727 7.723 7.724 7.724 0 0 1-7.727 7.727zm0 0" fill="#628fb1"/><path d="M434.25 406.59h-17.031a7.726 7.726 0 0 1-7.727-7.727v-15.648a7.726 7.726 0 1 1 15.453 0v7.926h9.301a7.723 7.723 0 0 1 7.727 7.722 7.723 7.723 0 0 1-7.723 7.727zm0 0" fill="#ffbd47"/><path d="M370.027 406.59h-9.41a7.724 7.724 0 0 1-7.726-7.727 7.723 7.723 0 0 1 7.726-7.722h9.41a7.725 7.725 0 1 1 0 15.449zm0 0" fill="#628fb1"/></svg>