<svg xmlns="http://www.w3.org/2000/svg" viewBox="0 0 491.52 491.52"><path d="M407.526 61.336H83.994c-8.533 0-15.451 6.918-15.451 15.452v399.28c0 8.535 6.918 15.453 15.451 15.453h323.533c8.533 0 15.451-6.918 15.451-15.453V76.788c-.001-8.534-6.919-15.452-15.452-15.452z" fill="#dc8744"/><path d="M407.526 52.262H83.994c-8.533 0-15.451 6.919-15.451 15.452v399.28c0 8.535 6.918 15.452 15.451 15.452h323.533c8.533 0 15.451-6.918 15.451-15.452V67.714c-.001-8.533-6.919-15.452-15.452-15.452z" fill="#f6c358"/><path fill="#ebf0f3" d="M97.331 79.718h296.868v376.986H97.331z"/><path fill="#fff" d="M97.331 70.779h296.868v376.986H97.331z"/><path d="M343.354 41.363A16.17 16.17 0 0 0 327.6 28.837h-53.004C274.597 12.911 261.686 0 245.759 0c-15.925 0-28.836 12.911-28.836 28.837h-53.005a16.17 16.17 0 0 0-15.753 12.526l-10.87 47.009h216.928l-10.869-47.009zm-97.595 1.334c-7.654 0-13.859-6.205-13.859-13.86s6.205-13.86 13.859-13.86c7.656 0 13.861 6.205 13.861 13.86s-6.205 13.86-13.861 13.86z" fill="#dc8744"/><path d="M193.134 189.028h-73.309v-73.313h73.309v73.313zm-59.903-13.405h46.499V129.12h-46.499v46.503z" fill="#64798a"/><path d="M210.586 123.494h81.572v12.769h-81.572zm0 44.995H373.73v12.769H210.586z" fill="#e1e6e9"/><path d="M193.134 295.924h-73.309V222.61h73.309v73.314zm-59.903-13.405h46.499v-46.503h-46.499v46.503z" fill="#64798a"/><path d="M210.586 230.385h81.572v12.769h-81.572zm0 44.999H373.73v12.769H210.586z" fill="#e1e6e9"/><path d="M193.134 402.819h-73.309v-73.313h73.309v73.313zm-59.903-13.405h46.499v-46.503h-46.499v46.503z" fill="#64798a"/><path d="M210.586 337.28h81.572v12.769h-81.572zm0 44.979H373.73v12.769H210.586z" fill="#e1e6e9"/><path d="M152.125 171.626l-18.231-21.46 6.807-5.787 12.769 15.029 43.827-33.098 5.394 7.13zm0 102.685l-18.231-21.456 6.807-5.786 12.769 15.024 43.827-33.094 5.394 7.13z" fill="#e56353"/></svg>