<svg height="512pt" viewBox="0 0 512 512" width="512pt" xmlns="http://www.w3.org/2000/svg"><path d="M7.574 441.816h326.184v62.61H7.574zm0 0" fill="#ff933b"/><path d="M311.54 441.816a80.535 80.535 0 0 0-7.067 33v.325a8.079 8.079 0 0 1-8.078 8.078H7.575v21.207h326.183v-62.61zm0 0" fill="#f27d27"/><path d="M504.426 504.426v-29.61c0-25.8-16.34-48.773-40.715-57.238l-31.996-11.11h-34.336l-31.992 11.11c-24.375 8.465-40.715 31.438-40.715 57.238v29.61zm0 0" fill="#636363"/><path d="M463.71 417.578l-5.663-1.965c14.933 11.239 24.164 29.028 24.164 48.418v40.395h22.215v-29.61c0-25.8-16.34-48.773-40.715-57.238zm0 0" fill="#494949"/><path d="M456.965 348.906c0-23.426-18.992-42.414-42.414-42.414-23.426 0-42.414 18.988-42.414 42.414v15.149c0 23.425 18.988 42.414 42.414 42.414 23.422 0 42.414-18.989 42.414-42.414zm0 0" fill="#feccc1"/><path d="M414.547 306.492c-2.942 0-5.813.301-8.582.871 19.308 3.969 33.828 21.059 33.828 41.543v15.149c0 20.484-14.52 37.574-33.828 41.543 2.77.57 5.64.87 8.582.87 23.426 0 42.414-18.988 42.414-42.413v-15.149c.004-23.422-18.988-42.414-42.414-42.414zm0 0" fill="#f9b3a7"/><path d="M226.39 354.969l-14.824-5.149v.098L177.23 409.5l-34.335-59.582-.012-.094-14.813 5.145c-24.375 8.46-40.718 31.433-40.718 57.238v29.605h179.757v-29.605c0-25.805-16.343-48.777-40.718-57.238zm0 0" fill="#636363"/><path d="M226.39 354.969L220.73 353c14.93 11.238 24.16 29.027 24.16 48.422v40.394h22.22v-29.609c0-25.805-16.344-48.777-40.72-57.238zm0 0" fill="#494949"/><path d="M142.895 349.918L177.23 409.5l34.336-59.582v-.098l-17.168-5.96h-34.335l-17.18 5.964zm0 0" fill="#ddf5ff"/><path d="M219.645 286.297c0-23.426-18.989-42.414-42.415-42.414s-42.414 18.988-42.414 42.414v15.148c0 23.422 18.989 42.414 42.414 42.414s42.415-18.992 42.415-42.414zm0 0" fill="#feccc1"/><path d="M177.23 243.883c-2.94 0-5.812.3-8.582.87 19.309 3.97 33.829 21.06 33.829 41.544v15.148c0 20.485-14.52 37.575-33.829 41.543 2.77.57 5.641.871 8.582.871 23.426 0 42.415-18.992 42.415-42.414v-15.148c0-23.426-18.989-42.414-42.415-42.414zm0 0" fill="#f9b3a7"/><path d="M264.078 7.574H47.968C25.66 7.574 7.575 25.66 7.575 47.97v105.023c0 22.313 18.086 40.395 40.395 40.395h22.215l50.496 50.496v-50.496h143.398c22.309 0 40.395-18.082 40.395-40.395V47.97c0-22.309-18.086-40.395-40.395-40.395zm0 0" fill="#8db0ff"/><path d="M264.078 7.574H47.968C25.66 7.574 7.575 25.66 7.575 47.97v105.023c0 22.313 18.086 40.395 40.395 40.395h22.215l50.496 50.496v-50.496h143.398c22.309 0 40.395-18.082 40.395-40.395V47.97c0-22.309-18.086-40.395-40.395-40.395zm0 0" fill="#8db0ff"/><path d="M47.969 173.191c-22.309 0-40.395-18.086-40.395-40.394v20.195c0 22.313 18.086 40.395 40.395 40.395h22.215l50.496 50.496v-20.2l-44.578-44.578a20.21 20.21 0 0 0-14.282-5.914zM264.078 7.574h-25.246c14.371 0 26.992 7.508 34.148 18.813 4.262 6.73-.558 15.523-8.527 15.523h-16.531c-33.465 0-60.594 27.125-60.594 60.59v60.594c0 5.578-4.52 10.097-10.098 10.097h-36.355c-11.156 0-20.195 9.043-20.195 20.2h143.398c22.309 0 40.395-18.086 40.395-40.395V47.97c0-22.309-18.086-40.395-40.395-40.395zm0 0" fill="#669af7"/><path d="M247.922 62.105h216.11c22.308 0 40.394 18.086 40.394 40.395v105.027c0 22.309-18.086 40.395-40.395 40.395H360.016v50.492l-50.493-50.492h-61.601c-22.309 0-40.395-18.086-40.395-40.395V102.5c0-22.309 18.086-40.395 40.395-40.395zm0 0" fill="#ffd664"/><path d="M247.922 225.703c-22.309 0-40.395-18.086-40.395-40.394v22.218c0 22.309 18.086 40.395 40.395 40.395h61.601l50.493 50.492v-22.219l-44.579-44.574a20.184 20.184 0 0 0-14.28-5.918zM464.031 62.105h-25.246c22.309 0 40.395 18.086 40.395 40.395v103.008c0 11.152-9.043 20.195-20.2 20.195h-78.765c-11.156 0-20.2 9.043-20.2 20.2v2.019h104.016c22.309 0 40.395-18.086 40.395-40.395V102.5c0-22.309-18.086-40.395-40.395-40.395zm0 0" fill="#f9c646"/><path d="M466.191 410.422l-20.668-7.176c11.57-9.164 19.012-23.32 19.012-39.191v-15.149c0-27.562-22.426-49.988-49.988-49.988s-49.988 22.426-49.988 49.988v15.149c0 15.87 7.445 30.027 19.015 39.191l-20.672 7.176c-13.257 4.605-24.402 13.05-32.382 23.82h-55.836v-22.035c0-29.004-18.41-54.883-45.809-64.394l-20.672-7.176c11.57-9.164 19.016-23.32 19.016-39.192v-15.148c0-27.567-22.426-49.988-49.989-49.988s-49.988 22.425-49.988 49.988v15.148c0 15.871 7.445 30.028 19.012 39.192l-20.668 7.176c-27.399 9.511-45.809 35.39-45.809 64.394v22.035H7.574A7.574 7.574 0 0 0 0 441.816v62.61A7.574 7.574 0 0 0 7.574 512h315.078c.34 0 .676-.031 1.008-.074a7.85 7.85 0 0 0 1.012.074h179.754a7.574 7.574 0 0 0 7.574-7.574v-29.61c0-29-18.406-54.879-45.809-64.394zm-86.484-61.516c0-19.21 15.629-34.84 34.84-34.84s34.84 15.63 34.84 34.84v15.149c0 19.21-15.63 34.84-34.84 34.84s-34.84-15.63-34.84-34.84zm-237.316-62.61c0-19.21 15.629-34.839 34.84-34.839 19.21 0 34.84 15.629 34.84 34.84v15.148c0 19.211-15.63 34.84-34.84 34.84-19.211 0-34.84-15.629-34.84-34.84zm50.73 65.138l7.36 2.554-23.25 40.34-23.25-40.34 7.359-2.554zm-98.195 60.773c0-22.559 14.32-42.687 35.629-50.086l8.86-3.074 31.253 54.234a7.573 7.573 0 0 0 13.125 0l31.254-54.234 8.86 3.074c21.308 7.399 35.624 27.527 35.624 50.086v22.035H94.926zm-79.778 37.184h306.883a67.924 67.924 0 0 0-4.933 25.425v22.036H15.148zm481.704 47.46H332.246v-22.035c0-22.558 14.316-42.683 35.625-50.086l30.785-10.687h31.781l30.786 10.687c21.312 7.403 35.629 27.528 35.629 50.086zm0 0"/><path d="M464.031 54.531h-76.937a7.576 7.576 0 0 0-7.574 7.574 7.574 7.574 0 0 0 7.574 7.575h76.937c18.098 0 32.82 14.722 32.82 32.824v105.023c0 18.098-14.722 32.82-32.82 32.82H360.016a7.574 7.574 0 0 0-7.575 7.575v32.21l-37.562-37.566a7.572 7.572 0 0 0-5.356-2.218h-61.601c-18.098 0-32.824-14.723-32.824-32.82V102.5c0-18.098 14.722-32.82 32.824-32.82h103.762a7.574 7.574 0 0 0 7.574-7.575 7.574 7.574 0 0 0-7.574-7.574h-39.637V47.97c0-26.45-21.52-47.969-47.969-47.969H47.968C21.52 0 0 21.52 0 47.969v16.746a7.574 7.574 0 0 0 7.574 7.574 7.574 7.574 0 0 0 7.574-7.574V47.969c0-18.098 14.723-32.82 32.82-32.82h216.11c18.098 0 32.82 14.722 32.82 32.82v6.562h-48.976c-26.45 0-47.969 21.52-47.969 47.969v83.313H120.68a7.574 7.574 0 0 0-7.575 7.574v32.21l-37.562-37.566a7.572 7.572 0 0 0-5.356-2.219H47.97c-18.098 0-32.82-14.722-32.82-32.82V99.934a7.574 7.574 0 0 0-7.575-7.575A7.574 7.574 0 0 0 0 99.934v53.058c0 26.453 21.52 47.969 47.969 47.969h19.078l48.277 48.277a7.593 7.593 0 0 0 8.254 1.64 7.576 7.576 0 0 0 4.676-6.995V200.96h71.7v6.566c0 26.45 21.519 47.965 47.968 47.965h58.465l48.273 48.278a7.572 7.572 0 0 0 12.93-5.356v-42.922h96.441c26.45 0 47.969-21.515 47.969-47.965V102.5c0-26.45-21.52-47.969-47.969-47.969zm0 0"/></svg>