<svg data-name="Layer 1" xmlns="http://www.w3.org/2000/svg" viewBox="0 0 140 140"><title>instagram</title><path d="M49.91 22.28A27.69 27.69 0 0 0 22.28 50v40a27.68 27.68 0 0 0 27.62 27.69h40.19A27.68 27.68 0 0 0 117.72 90V50A27.69 27.69 0 0 0 90.1 22.3H49.91zm0 8.2h40.18A19.34 19.34 0 0 1 109.54 50v40a19.33 19.33 0 0 1-19.44 19.49H49.91A19.33 19.33 0 0 1 30.47 90V50a19.33 19.33 0 0 1 19.44-19.51zm45.71 8.2a5.74 5.74 0 1 0 5.72 5.74 5.73 5.73 0 0 0-5.73-5.73zM70 45.43A24.57 24.57 0 1 0 94.52 70 24.6 24.6 0 0 0 70 45.43zm0 8.2A16.37 16.37 0 1 1 53.67 70 16.29 16.29 0 0 1 70 53.63z" fill="#fff"/></svg>