<svg height="640" viewBox="0 0 480 480.00012" width="640" xmlns="http://www.w3.org/2000/svg"><path d="M358.762 384H121.238a32.002 32.002 0 0 1-26.832-14.563A32 32 0 0 1 92 339l12-27V168c0-53.02 42.98-96 96-96h80c53.02 0 96 42.98 96 96v144l12 27a32 32 0 0 1-2.406 30.438A32.002 32.002 0 0 1 358.762 384zm0 0" fill="#ffb531"/><path d="M388 339l-12-27V168a95.518 95.518 0 0 0-20.191-58.762C303.8 257.742 190.625 342.398 116.902 383.711a32.94 32.94 0 0 0 4.336.289h237.524c10.832 0 20.93-5.48 26.832-14.562A32 32 0 0 0 388 339zm0 0" fill="#ffa912"/><path d="M172 119.512l-8-13.848a72.195 72.195 0 0 1 18.008-7.383l4 15.489A55.458 55.458 0 0 0 172 119.512zM144 200h-16v-32a71.43 71.43 0 0 1 21.863-51.633l11.145 11.473A55.574 55.574 0 0 0 144 168zm0 0" fill="#ffcb73"/><path d="M280 72h-80L168 8h144zm0 0" fill="#ffb531"/><path d="M256 200h-32c-8.836 0-16-7.164-16-16s7.164-16 16-16h56v-16h-32v-16h-16v16h-8c-17.672 0-32 14.328-32 32s14.328 32 32 32h32c8.836 0 16 7.164 16 16s-7.164 16-16 16h-56v16h32v16h16v-16h8c17.672 0 32-14.328 32-32s-14.328-32-32-32zm0 0" fill="#f58f00"/><path d="M404.96 325.64C363.728 293.567 306.649 291.3 263 320h-63c-17.672 0-32 14.328-32 32s14.328 32 32 32h-16L59.39 321.602a34.92 34.92 0 0 0-36.597 3.293l-.402.296A35.86 35.86 0 0 0 8 353.938v.84a35.764 35.764 0 0 0 18.656 31.39l135.864 74.113A96.01 96.01 0 0 0 208.48 472H408V328zm0 0" fill="#fec9a3"/><path d="M408 328h64v144h-64zm0 0" fill="#348fd9"/><path d="M408 424h64v48h-64zm0 0" fill="#3086cd"/><path d="M432 424h16v16h-16zm0 0" fill="#1a5485"/><path d="M296 392h-96a8 8 0 0 1 0-16h96a8 8 0 0 1 0 16zm0 0" fill="#feb784"/><path d="M384 280V168c.113-52.625-39.207-96.988-91.465-103.2L319.2 11.575A8 8 0 0 0 312 0H168a8.001 8.001 0 0 0-7.16 11.574l26.633 53.227C135.3 71.176 96.066 115.44 96 168v144h16V168c.059-48.578 39.422-87.941 88-88h80a87.86 87.86 0 0 1 62.262 25.738A87.86 87.86 0 0 1 368 168v112zM275.055 64h-70.11l-24-48h118.11zm0 0"/><path d="M172 119.512a55.437 55.437 0 0 1 13.992-5.742l-4-15.489a72.195 72.195 0 0 0-18.008 7.383zM128 200h16v-32a55.574 55.574 0 0 1 17.008-40.16l-11.145-11.473A71.43 71.43 0 0 0 128 168zM22.816 393.184l135.817 74.074A103.974 103.974 0 0 0 208.48 480H472a8 8 0 0 0 8-8V328a8 8 0 0 0-8-8h-61.223l-.914-.71a126.642 126.642 0 0 0-30.847-17.74A129.756 129.756 0 0 0 260.68 312H200a40.005 40.005 0 0 0-32.258 16.332 40.012 40.012 0 0 0-5.91 35.668l-98.894-49.55a42.799 42.799 0 0 0-45.32 4.335A43.99 43.99 0 0 0 0 353.922v.879a43.6 43.6 0 0 0 22.816 38.383zM416 336h48v128h-48zM16 353.922a28.262 28.262 0 0 1 11.594-22.64 26.769 26.769 0 0 1 28.183-2.528l124.649 62.398A7.93 7.93 0 0 0 184 392h120v-16H200c-13.254 0-24-10.746-24-24s10.746-24 24-24h63.04a8.084 8.084 0 0 0 4.41-1.32 113.743 113.743 0 0 1 105.597-10.29A111.093 111.093 0 0 1 400 331.88V464H208.48a87.972 87.972 0 0 1-42.175-10.785L30.449 379.129A27.615 27.615 0 0 1 16 354.8zm0 0"/><path d="M432 424h16v16h-16zM248 280v-16h8c17.672 0 32-14.328 32-32s-14.328-32-32-32h-32c-8.836 0-16-7.164-16-16s7.164-16 16-16h56v-16h-32v-16h-16v16h-8c-17.672 0-32 14.328-32 32s14.328 32 32 32h32c8.836 0 16 7.164 16 16s-7.164 16-16 16h-56v16h32v16zm0 0"/></svg>