<svg xmlns="http://www.w3.org/2000/svg" width="21.854" height="21.854" viewBox="0 0 21.854 21.854"><path d="M12.915 16.32c-1.3-.685-2.755-1.715-4.21-3.168-1.456-1.457-2.487-2.914-3.171-4.216L6.661 5.91 2.862 0 1.61 1.254l.001.003c-.008.009-.018.014-.028.025C-1.575 4.439.126 10.903 5.54 16.317c5.414 5.413 11.877 7.113 15.036 3.957l.024-.029 1.252-1.254-5.908-3.799-3.029 1.128zm7.186-4.945h1.75C21.851 5.104 16.749 0 10.477 0v1.75c5.307 0 9.624 4.319 9.624 9.625z"/><path d="M16.601 11.375h1.75c0-4.343-3.531-7.875-7.875-7.875v1.75a6.132 6.132 0 0 1 6.125 6.125z"/><path d="M13.101 11.375h1.75A4.38 4.38 0 0 0 10.477 7v1.75a2.627 2.627 0 0 1 2.624 2.625z"/></svg>