<svg height="512" viewBox="0 0 512 512" width="512" xmlns="http://www.w3.org/2000/svg"><path d="M486.096 418.107h-125.5c-5.315 0-9.623 4.304-9.623 9.614 0 12.332-10.007 22.329-22.35 22.329H183.377c-12.344 0-22.35-9.997-22.35-22.329 0-5.31-4.308-9.614-9.623-9.614h-125.5C11.597 418.107 0 429.693 0 443.986 0 474.093 24.43 498.5 54.567 498.5h402.866c30.136 0 54.567-24.407 54.567-54.514 0-14.293-11.597-25.879-25.904-25.879z" fill="#8F4200"/><path d="M312.346 270.732l6.58 28.603 26.241-13.145 54.306-115.308-32.822-15.458z"/><path d="M447.28 13.5H64.72C29.03 13.5 0 42.52 0 78.17v245.31c0 35.67 29.03 64.67 64.72 64.67h106.43c8.22 0 14.88 6.66 14.88 14.88 0 4.45 1.81 8.48 4.72 11.4a16.11 16.11 0 0 0 11.4 4.72H309.9c8.91 0 16.13-7.22 16.13-16.12 0-4.11 1.67-7.83 4.36-10.52s6.41-4.36 10.51-4.36h106.38c35.69 0 64.72-29 64.72-64.67V78.17c0-35.65-29.03-64.67-64.72-64.67zM236.227 321.292c0 8.284-6.716 15-15 15H75.94c-8.284 0-15-6.716-15-15V204.114c0-8.284 6.716-15 15-15h145.287c8.284 0 15 6.716 15 15zM60.94 139.389c0-8.284 6.716-15 15-15h140.834c8.284 0 15 6.716 15 15s-6.716 15-15 15H75.94c-8.284 0-15-6.716-15-15zm200.834-35H75.94c-8.284 0-15-6.716-15-15s6.716-15 15-15h185.834c8.284 0 15 6.716 15 15s-6.716 15-15 15zm184.701 37.102l-76.378 162.176a15.002 15.002 0 0 1-6.852 7.02l-47.941 24.016a14.989 14.989 0 0 1-13.11.159 15 15 0 0 1-8.228-10.208l-12.021-52.256a14.997 14.997 0 0 1 1.048-9.754l76.379-162.176c5.479-11.633 15.159-20.436 27.26-24.788 12.099-4.352 25.169-3.73 36.803 1.748h-.001c24.015 11.311 34.351 40.049 23.041 64.063z" fill="#8F4200"/><path d="M410.653 104.57a18.027 18.027 0 0 0-13.868-.659 18.018 18.018 0 0 0-10.271 9.34l-7.08 15.032 32.821 15.458 7.08-15.032c4.261-9.048.366-19.877-8.682-24.139z"/><path d="M90.94 219.114h115.287v87.179H90.94z" fill="#8F4200"/></svg>