<svg height="600" viewBox="-4 0 450 450.84649" width="600" xmlns="http://www.w3.org/2000/svg"><path d="M30.45 261.348L234.104 57.71l33.946 33.95L64.395 295.296zm0 0"/><path d="M.422 325.328l49.96-21.41-28.542-28.55zm0 0" fill="#8F4200"/><path d="M318.953 40.734c9.367-9.37 9.367-24.562 0-33.937-9.5-9.063-24.445-9.063-33.945 0l-16.969 16.969 33.945 33.945zm0 0"/><path d="M245.414 46.398l11.316-11.316 33.938 33.945-11.313 11.313zm157.488 68.45h40V30.16L22.215 450.848h420.687v-32h-40a8 8 0 0 1 0-16h40v-32h-24a8 8 0 0 1 0-16h24v-32h-40a8 8 0 0 1 0-16h40v-32h-24a8 8 0 0 1 0-16h24v-32h-40a8 8 0 0 1 0-16h40v-32h-24a8 8 0 0 1 0-16h24v-32h-40a8 8 0 0 1 0-16zm-24 264a8 8 0 0 1-8 8H196.04a8 8 0 0 1-5.656-13.657l174.863-174.855a8 8 0 0 1 13.656 5.656zm0 0" fill="#8F4200"/></svg>