<svg xmlns="http://www.w3.org/2000/svg" viewBox="0 0 208.84 104.65"><defs><style>.cls-1{fill:#44763b;}</style></defs><title>Ресурс 2</title><g id="Слой_2" data-name="Слой 2"><g id="Слой_1-2" data-name="Слой 1"><path class="cls-1" d="M100.87,53.82a1.69,1.69,0,0,0-.64-.45,2.58,2.58,0,0,0-.86-.14,2.28,2.28,0,0,0-.86.14,1.9,1.9,0,0,0-.65.45,2.14,2.14,0,0,0-.41.73,3.13,3.13,0,0,0-.15,1,2.4,2.4,0,0,0,.57,1.72,2.17,2.17,0,0,0,3,0,2.44,2.44,0,0,0,.56-1.72,3.35,3.35,0,0,0-.14-1A1.92,1.92,0,0,0,100.87,53.82Z"/><path class="cls-1" d="M131.39,0H77.46a3.72,3.72,0,0,0-3.68,3.74V58.61a3.71,3.71,0,0,0,3.68,3.73h53.93a3.72,3.72,0,0,0,3.68-3.73V3.74A3.72,3.72,0,0,0,131.39,0ZM78.29,49.07c-.4-21.07-.13-13.25.18-38,0-.95,1.74-.65,2.39,0L98.24,29a1.75,1.75,0,0,1,0,2.43L80.67,49.08C80,49.74,78.31,50,78.29,49.07Zm5.24,9.33H79.6V52.69h.9v5h3Zm3.35-2.53V58.4H86V56l-2.29-3.27h1l1.75,2.52,1.78-2.52h1Zm7.92,1.56a1.56,1.56,0,0,1-.46.56,2.25,2.25,0,0,1-.74.38,3.35,3.35,0,0,1-1,.13,5.57,5.57,0,0,1-1.25-.12,6.49,6.49,0,0,1-1-.32v-1h.05a3.58,3.58,0,0,0,1,.55,3.34,3.34,0,0,0,1.09.19,2,2,0,0,0,1.13-.26A.82.82,0,0,0,94,56.9a.84.84,0,0,0-.2-.57,1.37,1.37,0,0,0-.64-.31l-.57-.13L92,55.76a2.59,2.59,0,0,1-.63-.2,1.37,1.37,0,0,1-.49-.31,1.31,1.31,0,0,1-.33-.44,1.51,1.51,0,0,1-.12-.59A1.4,1.4,0,0,1,91,53.06a2.71,2.71,0,0,1,1.63-.47,6,6,0,0,1,1.08.09,5.16,5.16,0,0,1,.94.28v.91h-.06a3.08,3.08,0,0,0-.83-.44,3.17,3.17,0,0,0-1.07-.19,1.91,1.91,0,0,0-1,.25.75.75,0,0,0-.39.65.77.77,0,0,0,.23.58,1.46,1.46,0,0,0,.66.32l.7.15c.28,0,.51.1.69.14a2.1,2.1,0,0,1,1,.55,1.32,1.32,0,0,1,.32.9A1.49,1.49,0,0,1,94.8,57.43Zm7.36-.63a2.43,2.43,0,0,1-.61.94,2.49,2.49,0,0,1-1,.59,3.57,3.57,0,0,1-1.21.19,3.71,3.71,0,0,1-1.24-.19,2.63,2.63,0,0,1-.95-.59,2.45,2.45,0,0,1-.6-.93,3.54,3.54,0,0,1-.22-1.26,3.48,3.48,0,0,1,.22-1.27,2.66,2.66,0,0,1,.6-.93,2.48,2.48,0,0,1,.95-.58,3.71,3.71,0,0,1,1.24-.2,3.47,3.47,0,0,1,1.24.21,2.4,2.4,0,0,1,.94.57,2.49,2.49,0,0,1,.6.93,3.35,3.35,0,0,1,.22,1.27A3.52,3.52,0,0,1,102.16,56.8Zm6.14-3.44h-3.16V55h3v.68h-3V58.4h-.91V52.69h4.07Zm7.08,3.44a2.54,2.54,0,0,1-1.58,1.53,3.57,3.57,0,0,1-1.21.19,3.67,3.67,0,0,1-1.24-.19,2.77,2.77,0,0,1-1-.59,2.71,2.71,0,0,1-.6-.93,3.78,3.78,0,0,1-.2-1.26,3.48,3.48,0,0,1,.21-1.27,2.66,2.66,0,0,1,.6-.93,2.48,2.48,0,0,1,.95-.58,3.71,3.71,0,0,1,1.24-.2,3.47,3.47,0,0,1,1.24.21,2.46,2.46,0,0,1,1.54,1.5,3.35,3.35,0,0,1,.22,1.27A3.52,3.52,0,0,1,115.38,56.8Zm6.16,1.6-2.15-2.27h-1V58.4h-.91V52.69h1.75a6.42,6.42,0,0,1,1,.06,1.9,1.9,0,0,1,.76.25,1.48,1.48,0,0,1,.56.49,1.29,1.29,0,0,1,.21.76,1.5,1.5,0,0,1-.38,1,2.26,2.26,0,0,1-1,.63l2.42,2.48Zm8.4,0H129V53.49l-1.77,3.34h-.55L125,53.49V58.4h-.84V52.69h1.23L127,55.87l1.64-3.18h1.26Zm.82-11.67c0,1.47-1.6,3.71-2.65,2.69C104.53,26.56,113.41,34.91,86.6,7.2c-1-1.06,1.2-2.7,2.66-2.7h38.85a2.68,2.68,0,0,1,2.65,2.7Z"/><path class="cls-1" d="M114.09,53.82a1.65,1.65,0,0,0-.65-.45,2.48,2.48,0,0,0-.85-.14,2.2,2.2,0,0,0-.85.14,1.79,1.79,0,0,0-1.07,1.18,3.45,3.45,0,0,0-.14,1,2.48,2.48,0,0,0,.55,1.72,2,2,0,0,0,1.51.6,2,2,0,0,0,1.5-.6,2.44,2.44,0,0,0,.56-1.72,3,3,0,0,0-.15-1A1.79,1.79,0,0,0,114.09,53.82Z"/><path class="cls-1" d="M120.67,54.81a1.29,1.29,0,0,0,.09-.51,1,1,0,0,0-.11-.45.87.87,0,0,0-.32-.31,1.49,1.49,0,0,0-.45-.15,3.56,3.56,0,0,0-.63,0h-.89V55.5h.78a3.58,3.58,0,0,0,.7-.06,1.22,1.22,0,0,0,.53-.23A1,1,0,0,0,120.67,54.81Z"/><path class="cls-1" d="M208.84,70.79h-8.28L194.4,84.61h-.27L188,70.79h-8.28V88h4.45V74.23h.59L191.11,88h6.32l6.37-13.81h.59V88h4.45Zm-46.55,8.73h7.43a4.45,4.45,0,0,0,1.73-.28,1.69,1.69,0,0,0,.9-.86,3.9,3.9,0,0,0,.26-1.55,2.73,2.73,0,0,0-.62-2,3.14,3.14,0,0,0-2.27-.63h-7.43ZM157.84,88V70.79h12.68a11.27,11.27,0,0,1,3,.34,4.76,4.76,0,0,1,2,1A4.15,4.15,0,0,1,176.68,74a9.13,9.13,0,0,1,.38,2.81,8.26,8.26,0,0,1-.68,3.54,4.09,4.09,0,0,1-2.09,2,9.5,9.5,0,0,1-3.72.61h-8.28V88Zm-2.8-5.9a9.88,9.88,0,0,1-.32,2.78,3.76,3.76,0,0,1-1.09,1.78,4.63,4.63,0,0,1-2.06,1,13.52,13.52,0,0,1-3.26.33h-8.17A12.6,12.6,0,0,1,137,87.7a5.2,5.2,0,0,1-2.12-1,4.16,4.16,0,0,1-1.19-1.82,8.49,8.49,0,0,1-.38-2.7V76.91a10.25,10.25,0,0,1,.37-3,4,4,0,0,1,1.17-1.86,4.76,4.76,0,0,1,2.07-1,14.67,14.67,0,0,1,3.25-.3h8.17a11.62,11.62,0,0,1,3.87.53,3.91,3.91,0,0,1,2.16,1.87,8.08,8.08,0,0,1,.7,3.72Zm-17.31-.41a4.28,4.28,0,0,0,.32,1.76,1.72,1.72,0,0,0,1,.86,6.49,6.49,0,0,0,2.12.26h5.9a7,7,0,0,0,2.18-.25,1.56,1.56,0,0,0,1-.85,4.45,4.45,0,0,0,.29-1.81V77.3a4.23,4.23,0,0,0-.34-1.92,1.84,1.84,0,0,0-1.09-.91,7,7,0,0,0-2.14-.25H141.3a6.68,6.68,0,0,0-2.16.27,1.7,1.7,0,0,0-1.06.91,5.07,5.07,0,0,0-.35,1.93Zm-24.36-6.16h-4.48a7,7,0,0,0-2.14.25,1.77,1.77,0,0,0-1.09.9,4.28,4.28,0,0,0-.34,1.93v1.51a4.3,4.3,0,0,0,.29,1.82,1.61,1.61,0,0,0,1,.85,7.88,7.88,0,0,0,2.19.24h4.56Zm0-4.78h4.45v1.35h5.71a11.38,11.38,0,0,1,3.86.53,3.85,3.85,0,0,1,2.15,1.87,7.87,7.87,0,0,1,.71,3.71v2.36a9.85,9.85,0,0,1-.32,2.77,3.76,3.76,0,0,1-1.09,1.78,4.69,4.69,0,0,1-2.06,1,13.61,13.61,0,0,1-3.25.33h-5.71V88h-4.45V86.5h-5.76a13.49,13.49,0,0,1-3.25-.33,4.58,4.58,0,0,1-2.06-1,3.78,3.78,0,0,1-1.09-1.8,9.45,9.45,0,0,1-.33-2.75V78.25a8,8,0,0,1,.7-3.71,3.87,3.87,0,0,1,2.16-1.87,11.41,11.41,0,0,1,3.87-.53h5.76Zm4.45,4.78v7.5h4.59a7.74,7.74,0,0,0,2.18-.24,1.61,1.61,0,0,0,1-.85,4.47,4.47,0,0,0,.29-1.82V78.65a4.42,4.42,0,0,0-.34-1.93,1.82,1.82,0,0,0-1.09-.9,7.06,7.06,0,0,0-2.14-.25ZM98.06,82.14a9.84,9.84,0,0,1-.33,2.78,3.76,3.76,0,0,1-1.09,1.78,4.58,4.58,0,0,1-2.06,1,13.49,13.49,0,0,1-3.25.33H83.16A12.63,12.63,0,0,1,80,87.7a5.2,5.2,0,0,1-2.12-1,4.16,4.16,0,0,1-1.19-1.82,8.49,8.49,0,0,1-.38-2.7V76.91a9.92,9.92,0,0,1,.37-3,4,4,0,0,1,1.17-1.86,4.75,4.75,0,0,1,2.08-1,14.54,14.54,0,0,1,3.25-.3h8.17a11.6,11.6,0,0,1,3.86.53,3.91,3.91,0,0,1,2.16,1.87,8.06,8.06,0,0,1,.71,3.72Zm-17.32-.41a4.11,4.11,0,0,0,.33,1.76,1.65,1.65,0,0,0,1,.86,6.49,6.49,0,0,0,2.12.26h5.9a7,7,0,0,0,2.18-.25,1.56,1.56,0,0,0,1-.85,4.45,4.45,0,0,0,.29-1.81V77.3a4.23,4.23,0,0,0-.34-1.92,1.85,1.85,0,0,0-1.08-.91,7,7,0,0,0-2.14-.25H84.31a6.64,6.64,0,0,0-2.16.27,1.73,1.73,0,0,0-1.06.91,5.07,5.07,0,0,0-.35,1.93ZM58.14,88a10.64,10.64,0,0,1-3.72-.53,3.55,3.55,0,0,1-2-1.59,5.79,5.79,0,0,1-.59-2.78h4.56a1.42,1.42,0,0,0,.64,1.15,2.55,2.55,0,0,0,1.56.49h7.45a4.06,4.06,0,0,0,2.19-.46A1.62,1.62,0,0,0,69,82.84a2.27,2.27,0,0,0-.24-1.1,1.55,1.55,0,0,0-.91-.65,5.91,5.91,0,0,0-1.89-.23H57.77v-3h8.69c1.43,0,2.14-.67,2.14-2,0-1.19-.71-1.79-2.14-1.79H59a2.9,2.9,0,0,0-1.76.37,1.77,1.77,0,0,0-.51,1.24H52.25a5.19,5.19,0,0,1,.65-2.75A3.89,3.89,0,0,1,55,71.31a10.8,10.8,0,0,1,3.64-.52h7.56a13,13,0,0,1,4,.49,4,4,0,0,1,2.18,1.55,5.39,5.39,0,0,1,.74,2.83A4.16,4.16,0,0,1,72.37,78a3.82,3.82,0,0,1-1.81,1.27,4.89,4.89,0,0,1,2.11,1.28,3.16,3.16,0,0,1,.73,2.2,6.12,6.12,0,0,1-.65,3,3.87,3.87,0,0,1-2,1.7,10,10,0,0,1-3.59.55Zm-9.08,0V70.79H41.58L30.24,84.61h-.61V70.79H25.17V88h7.65L44,74.23h.62V88Zm-27-17.25V88H17.61V74.22H7.15v7.56Q7.15,88,1.87,88H0V84.61a3.78,3.78,0,0,0,1.72-.3,1.58,1.58,0,0,0,.78-1,7.31,7.31,0,0,0,.21-2V70.79H22.06Z"/><path class="cls-1" d="M3.86,95.85a.9.9,0,0,1,0,.24.5.5,0,0,1,0,.16s0,.08-.07.09a.15.15,0,0,1-.1,0H1.19v5.52a.17.17,0,0,1,0,.1.2.2,0,0,1-.1.07.6.6,0,0,1-.18,0H.3a.69.69,0,0,1-.18,0S0,102,0,102a.17.17,0,0,1,0-.1V95.74a.4.4,0,0,1,.1-.31.34.34,0,0,1,.27-.11H3.62a.12.12,0,0,1,.1,0,.2.2,0,0,1,.07.1.5.5,0,0,1,0,.16A.79.79,0,0,1,3.86,95.85Z"/><path class="cls-1" d="M18.41,98.6a5.43,5.43,0,0,1-.19,1.51,3.38,3.38,0,0,1-.53,1.13,2.29,2.29,0,0,1-.89.71,2.71,2.71,0,0,1-1.2.26,2.2,2.2,0,0,1-.53-.06,2.34,2.34,0,0,1-.48-.18,3,3,0,0,1-.46-.3,6.26,6.26,0,0,1-.49-.44v3.2a.17.17,0,0,1,0,.1.35.35,0,0,1-.09.07.6.6,0,0,1-.18,0h-.58l-.19,0a.35.35,0,0,1-.09-.07.17.17,0,0,1,0-.1V95.51a.13.13,0,0,1,0-.1s0,0,.08-.07a.61.61,0,0,1,.17,0h.49a.53.53,0,0,1,.16,0,.22.22,0,0,1,.09.07.13.13,0,0,1,0,.1v.86a6.52,6.52,0,0,1,.56-.52,3.6,3.6,0,0,1,.56-.37,3,3,0,0,1,.56-.22,2.51,2.51,0,0,1,.62-.07,2.47,2.47,0,0,1,1.2.27,2.21,2.21,0,0,1,.81.74,3.06,3.06,0,0,1,.45,1.09A5.53,5.53,0,0,1,18.41,98.6Zm-1.23.14a5.8,5.8,0,0,0-.08-.95,2.41,2.41,0,0,0-.26-.81,1.52,1.52,0,0,0-.49-.57,1.38,1.38,0,0,0-.78-.21,1.74,1.74,0,0,0-.45.06,1.93,1.93,0,0,0-.46.22,2.57,2.57,0,0,0-.48.38,5.41,5.41,0,0,0-.54.59V100a5.47,5.47,0,0,0,.93.9,1.67,1.67,0,0,0,.93.31,1.36,1.36,0,0,0,.77-.21,1.78,1.78,0,0,0,.52-.57,2.81,2.81,0,0,0,.29-.8A3.77,3.77,0,0,0,17.18,98.74Z"/><path class="cls-1" d="M30.39,102.07l-.86,2.35a.31.31,0,0,1-.22.17,1.75,1.75,0,0,1-.53.06h-.3l-.18-.06a.19.19,0,0,1-.07-.12.45.45,0,0,1,0-.17l.89-2.22A.47.47,0,0,1,29,102a.29.29,0,0,1-.08-.14l-2.31-6.1a.65.65,0,0,1-.06-.23.18.18,0,0,1,.06-.14.38.38,0,0,1,.19-.06,1.62,1.62,0,0,1,.34,0h.34l.19,0a.19.19,0,0,1,.11.08l.07.15,1.84,5.12h0l1.78-5.15a.37.37,0,0,1,.1-.18.56.56,0,0,1,.19,0,1.68,1.68,0,0,1,.35,0,1.62,1.62,0,0,1,.33,0,.38.38,0,0,1,.19.06.18.18,0,0,1,.06.14.59.59,0,0,1,0,.21Z"/><path class="cls-1" d="M46.94,101.89a.17.17,0,0,1,0,.1.22.22,0,0,1-.09.07.69.69,0,0,1-.18,0h-.58l-.19,0s-.08,0-.09-.07a.17.17,0,0,1,0-.1V96.32H42.66v5.57a.17.17,0,0,1,0,.1.22.22,0,0,1-.09.07l-.19,0h-.57l-.19,0a.22.22,0,0,1-.09-.07.16.16,0,0,1,0-.1V95.74a.44.44,0,0,1,.09-.31.37.37,0,0,1,.27-.11h4.74a.34.34,0,0,1,.27.11.44.44,0,0,1,.09.31Z"/><path class="cls-1" d="M62,101.89a.17.17,0,0,1,0,.1.22.22,0,0,1-.09.07l-.18,0h-.59l-.18,0s-.08,0-.09-.07a.17.17,0,0,1,0-.1V96.32H57.69v5.57a.17.17,0,0,1,0,.1.22.22,0,0,1-.09.07l-.19,0h-.57l-.19,0a.22.22,0,0,1-.09-.07.17.17,0,0,1,0-.1V95.74a.44.44,0,0,1,.1-.31.37.37,0,0,1,.27-.11h4.74a.37.37,0,0,1,.27.11.44.44,0,0,1,.09.31Z"/><path class="cls-1" d="M76.41,101.9a.15.15,0,0,1-.06.13.34.34,0,0,1-.16.06,1.11,1.11,0,0,1-.29,0,1.24,1.24,0,0,1-.3,0,.27.27,0,0,1-.16-.06.14.14,0,0,1,0-.13v-.64a3.33,3.33,0,0,1-1,.7,2.6,2.6,0,0,1-1.1.25,3,3,0,0,1-.93-.14,2,2,0,0,1-.7-.37,1.68,1.68,0,0,1-.46-.62,2.1,2.1,0,0,1-.16-.82,1.9,1.9,0,0,1,.23-.94,1.81,1.81,0,0,1,.64-.65,3.06,3.06,0,0,1,1-.4,6.22,6.22,0,0,1,1.36-.13h.89v-.5a2.57,2.57,0,0,0-.08-.65,1,1,0,0,0-.26-.47,1,1,0,0,0-.45-.28,2,2,0,0,0-.69-.1,2.71,2.71,0,0,0-.79.1,4.63,4.63,0,0,0-.61.23,4.31,4.31,0,0,0-.44.23.72.72,0,0,1-.26.1.15.15,0,0,1-.1,0,.3.3,0,0,1-.08-.08.33.33,0,0,1,0-.15,1.12,1.12,0,0,1,0-.2,1.09,1.09,0,0,1,0-.28.34.34,0,0,1,.12-.19,1.66,1.66,0,0,1,.33-.22,3.15,3.15,0,0,1,.55-.22,4.1,4.1,0,0,1,.67-.17,3.81,3.81,0,0,1,.75-.07,4.08,4.08,0,0,1,1.18.15,2,2,0,0,1,.79.46,1.76,1.76,0,0,1,.44.75,3.64,3.64,0,0,1,.14,1ZM75.23,99h-1a3.52,3.52,0,0,0-.85.09,1.64,1.64,0,0,0-.6.24.91.91,0,0,0-.35.38,1.19,1.19,0,0,0-.11.51,1,1,0,0,0,.32.8,1.29,1.29,0,0,0,.89.29,1.77,1.77,0,0,0,.87-.23,3.76,3.76,0,0,0,.84-.72Z"/><path class="cls-1" d="M101.92,101.94a.12.12,0,0,1-.12.13.42.42,0,0,1-.18,0H101a.88.88,0,0,1-.2,0,.44.44,0,0,1-.12-.06.41.41,0,0,1,0-.09l-.69-1.66a4.51,4.51,0,0,0-.27-.54,1.43,1.43,0,0,0-.35-.38,1.27,1.27,0,0,0-.44-.2,1.86,1.86,0,0,0-.56-.07h-.5v2.88s0,0,0,.07l-.1,0-.19,0H97l-.19,0a.19.19,0,0,1-.1,0s0-.05,0-.07V95.45s0,0,0-.07a.19.19,0,0,1,.1,0l.19,0h.53l.19,0,.1,0s0,.05,0,.07v2.68h.5a1.9,1.9,0,0,0,.5-.06,1.62,1.62,0,0,0,.42-.2,1.65,1.65,0,0,0,.33-.36,2.91,2.91,0,0,0,.27-.53l.6-1.47a.21.21,0,0,1,.06-.1.2.2,0,0,1,.1-.07l.19,0h.6l.17,0a.19.19,0,0,1,.09,0,.25.25,0,0,1,0,.07.78.78,0,0,1,0,.14.82.82,0,0,1-.06.16l-.61,1.4a2.79,2.79,0,0,1-.32.6,2.3,2.3,0,0,1-.34.4,1.33,1.33,0,0,1-.35.25,3.19,3.19,0,0,1-.35.14h0a2.9,2.9,0,0,1,.47.21,1.85,1.85,0,0,1,.39.3,2.11,2.11,0,0,1,.35.42,4.16,4.16,0,0,1,.29.56l.71,1.62a.41.41,0,0,1,0,.09s0,.06,0,.08,0,0,0,.07Z"/><path class="cls-1" d="M116.65,98.63a4.73,4.73,0,0,1-.21,1.44,3.35,3.35,0,0,1-.62,1.13,2.9,2.9,0,0,1-1,.74,3.63,3.63,0,0,1-1.44.27A3.68,3.68,0,0,1,112,102a2.41,2.41,0,0,1-1-.68,2.94,2.94,0,0,1-.59-1.09,4.86,4.86,0,0,1-.2-1.44,4.73,4.73,0,0,1,.21-1.44,3.1,3.1,0,0,1,.62-1.13,2.78,2.78,0,0,1,1-.74,3.76,3.76,0,0,1,1.45-.26,3.93,3.93,0,0,1,1.39.23,2.78,2.78,0,0,1,1,.68,2.94,2.94,0,0,1,.59,1.09A4.91,4.91,0,0,1,116.65,98.63Zm-1.23.08a5.08,5.08,0,0,0-.1-1,2.45,2.45,0,0,0-.32-.81,1.58,1.58,0,0,0-.62-.55,2.06,2.06,0,0,0-.95-.2,2.11,2.11,0,0,0-.91.18,1.68,1.68,0,0,0-.63.52,2.68,2.68,0,0,0-.37.8,4,4,0,0,0-.12,1,5.19,5.19,0,0,0,.1,1,2.5,2.5,0,0,0,.33.8,1.71,1.71,0,0,0,.61.55,2.13,2.13,0,0,0,1,.2,2,2,0,0,0,.91-.19,1.73,1.73,0,0,0,.63-.51,2.35,2.35,0,0,0,.36-.8A3.94,3.94,0,0,0,115.42,98.71Z"/><path class="cls-1" d="M133.93,101.83a.22.22,0,0,1-.1.22,1,1,0,0,1-.44.06h-.29l-.18,0a.17.17,0,0,1-.09-.06.28.28,0,0,1,0-.11l-.46-3.72c0-.13,0-.27-.05-.43s0-.3,0-.46,0-.31,0-.47,0-.3,0-.44v-.16c0,.14-.08.28-.13.43s-.1.31-.16.47l-.16.46c0,.16-.09.31-.14.44l-1.36,3.79a.59.59,0,0,1-.06.14.31.31,0,0,1-.11.09.69.69,0,0,1-.17,0h-.51a.69.69,0,0,1-.17,0,.31.31,0,0,1-.11-.09.37.37,0,0,1-.07-.14L127.69,98q-.07-.19-.15-.42l-.15-.47-.15-.47a4.16,4.16,0,0,1-.12-.44v.16c0,.14,0,.29,0,.44s0,.32,0,.47,0,.31,0,.46,0,.3,0,.43l-.44,3.66a.47.47,0,0,1,0,.14s0,.06-.09.08a.84.84,0,0,1-.19,0h-.58a.37.37,0,0,1-.16,0,.13.13,0,0,1-.07-.09.28.28,0,0,1,0-.13l.71-6a.57.57,0,0,1,.16-.34.54.54,0,0,1,.38-.12h.57a1.16,1.16,0,0,1,.35,0,.74.74,0,0,1,.26.1.87.87,0,0,1,.17.21,1.59,1.59,0,0,1,.14.34l1,2.71.17.5c.06.17.11.34.16.5l.15.48.12.44h0c0-.14.08-.3.13-.46s.09-.33.15-.5.1-.33.16-.5.11-.32.16-.47l1-2.7a1.55,1.55,0,0,1,.12-.31.76.76,0,0,1,.17-.22.9.9,0,0,1,.24-.12,1.59,1.59,0,0,1,.34,0h.56a.64.64,0,0,1,.4.11.44.44,0,0,1,.15.34Z"/><path class="cls-1" d="M148.55,101.89a.17.17,0,0,1,0,.1.2.2,0,0,1-.1.07.6.6,0,0,1-.18,0h-.58a.6.6,0,0,1-.18,0,.2.2,0,0,1-.1-.07.17.17,0,0,1,0-.1V96.32h-3.08v5.57a.17.17,0,0,1,0,.1.2.2,0,0,1-.1.07l-.18,0h-.58a.69.69,0,0,1-.18,0s-.08,0-.09-.07a.17.17,0,0,1,0-.1V95.74a.4.4,0,0,1,.1-.31.34.34,0,0,1,.27-.11h4.73a.34.34,0,0,1,.27.11.44.44,0,0,1,.1.31Z"/><path class="cls-1" d="M163,101.9a.17.17,0,0,1,0,.13.38.38,0,0,1-.16.06,1.24,1.24,0,0,1-.3,0,1.32,1.32,0,0,1-.3,0A.34.34,0,0,1,162,102a.17.17,0,0,1,0-.13v-.64a3.29,3.29,0,0,1-.94.7,2.65,2.65,0,0,1-1.11.25,2.91,2.91,0,0,1-.92-.14,2,2,0,0,1-.71-.37,1.77,1.77,0,0,1-.45-.62,1.94,1.94,0,0,1-.16-.82,1.89,1.89,0,0,1,.22-.94,1.81,1.81,0,0,1,.64-.65,3.15,3.15,0,0,1,1-.4,6.34,6.34,0,0,1,1.36-.13h.89v-.5a2.18,2.18,0,0,0-.08-.65,1,1,0,0,0-.71-.75,2,2,0,0,0-.69-.1,2.8,2.8,0,0,0-.79.1,5.24,5.24,0,0,0-.61.23l-.44.23a.66.66,0,0,1-.26.1.17.17,0,0,1-.1,0,.27.27,0,0,1-.07-.08.53.53,0,0,1-.05-.15,1.21,1.21,0,0,1,0-.2,1.14,1.14,0,0,1,0-.28.5.5,0,0,1,.12-.19,2.24,2.24,0,0,1,.34-.22,3,3,0,0,1,.54-.22,4.22,4.22,0,0,1,.68-.17,3.64,3.64,0,0,1,.74-.07,4.15,4.15,0,0,1,1.19.15,2,2,0,0,1,.79.46,1.76,1.76,0,0,1,.44.75,3.65,3.65,0,0,1,.13,1ZM161.8,99h-1a3.52,3.52,0,0,0-.85.09,1.64,1.64,0,0,0-.6.24,1,1,0,0,0-.34.38,1.07,1.07,0,0,0-.12.51,1,1,0,0,0,.32.8,1.33,1.33,0,0,0,.9.29,1.77,1.77,0,0,0,.87-.23,4,4,0,0,0,.83-.72Z"/><path class="cls-1" d="M178.2,101.89a.17.17,0,0,1,0,.1.2.2,0,0,1-.1.07.61.61,0,0,1-.17,0h-.59l-.18,0A.22.22,0,0,1,177,102a.17.17,0,0,1,0-.1v-2.8h-3.3v2.8a.17.17,0,0,1,0,.1.22.22,0,0,1-.09.07.6.6,0,0,1-.18,0h-.58l-.19,0a.22.22,0,0,1-.09-.07.17.17,0,0,1,0-.1V95.51a.17.17,0,0,1,0-.1.35.35,0,0,1,.09-.07l.19,0h.58a.6.6,0,0,1,.18,0,.35.35,0,0,1,.09.07.17.17,0,0,1,0,.1V98.1H177V95.51a.17.17,0,0,1,0-.1.35.35,0,0,1,.09-.07l.18,0h.59a.61.61,0,0,1,.17,0,.29.29,0,0,1,.1.07.17.17,0,0,1,0,.1Z"/><path class="cls-1" d="M193.52,101.9a.16.16,0,0,1,0,.09.22.22,0,0,1-.09.07.6.6,0,0,1-.18,0h-.58l-.18,0a.2.2,0,0,1-.1-.07.16.16,0,0,1,0-.09V98.23c0-.19,0-.38,0-.57s0-.38,0-.56a6.49,6.49,0,0,1-.36.55l-.4.55-2.75,3.7-.09.1-.1.07a.57.57,0,0,1-.16,0H188a.46.46,0,0,1-.16,0,.17.17,0,0,1-.09-.07.16.16,0,0,1,0-.09V95.5a.16.16,0,0,1,0-.09.17.17,0,0,1,.09-.07l.18,0h.29a1.65,1.65,0,0,1,.47,0c.09,0,.13.09.13.16v3.7c0,.18,0,.37,0,.55s0,.36,0,.54l.33-.53.37-.51,2.78-3.75.09-.1a.35.35,0,0,1,.12-.07l.16,0h.49a.53.53,0,0,1,.17,0,.22.22,0,0,1,.09.07.3.3,0,0,1,0,.1Z"/><path class="cls-1" d="M208.84,101.9a.15.15,0,0,1,0,.09.2.2,0,0,1-.1.07.6.6,0,0,1-.18,0H208l-.19,0a.2.2,0,0,1-.1-.07.16.16,0,0,1,0-.09V98.23c0-.19,0-.38,0-.57l0-.56a6.49,6.49,0,0,1-.36.55c-.13.19-.27.37-.4.55l-2.75,3.7-.09.1a.26.26,0,0,1-.1.07.57.57,0,0,1-.15,0h-.49l-.16,0a.22.22,0,0,1-.09-.07.15.15,0,0,1,0-.09V95.5a.15.15,0,0,1,0-.09.22.22,0,0,1,.09-.07l.19,0h.28a1.55,1.55,0,0,1,.47,0c.09,0,.13.09.13.16v3.7c0,.18,0,.37,0,.55s0,.36,0,.54c.11-.18.22-.36.34-.53s.23-.34.36-.51l2.78-3.75.09-.1a.35.35,0,0,1,.12-.07l.16,0h.5a.53.53,0,0,1,.16,0,.22.22,0,0,1,.09.07.16.16,0,0,1,0,.1Zm-.63-9.41a2.33,2.33,0,0,1-.12.76,1.49,1.49,0,0,1-.39.62,1.79,1.79,0,0,1-.68.42,3.54,3.54,0,0,1-2,0,1.9,1.9,0,0,1-.7-.39,1.6,1.6,0,0,1-.41-.61,2.11,2.11,0,0,1-.14-.82.5.5,0,0,1,0-.12.21.21,0,0,1,.1-.08l.18,0h.54a.36.36,0,0,1,.15.06.13.13,0,0,1,.07.09.3.3,0,0,1,0,.14A1.07,1.07,0,0,0,205,93a.92.92,0,0,0,.21.34,1.28,1.28,0,0,0,.36.22,1.42,1.42,0,0,0,.48.08,1.32,1.32,0,0,0,.47-.08,1.1,1.1,0,0,0,.35-.22,1,1,0,0,0,.22-.34,1.55,1.55,0,0,0,.07-.43.37.37,0,0,1,0-.12.13.13,0,0,1,.07-.09.52.52,0,0,1,.15-.06h.55l.18,0a.18.18,0,0,1,.09.08A.27.27,0,0,1,208.21,92.49Z"/></g></g></svg>