<svg version="1.1" id="Layer_1" xmlns="http://www.w3.org/2000/svg" xmlns:xlink="http://www.w3.org/1999/xlink" x="0px" y="0px" viewBox="0 0 512 512" style="enable-background:new 0 0 512 512;" xml:space="preserve">
    <path d="M256,277.333c-64.698,0-117.333,52.635-117.333,117.333S191.302,512,256,512s117.333-52.635,117.333-117.333
				S320.698,277.333,256,277.333z M298.667,405.333h-32v32c0,5.896-4.771,10.667-10.667,10.667s-10.667-4.771-10.667-10.667v-32h-32
				c-5.896,0-10.667-4.771-10.667-10.667S207.438,384,213.333,384h32v-32c0-5.896,4.771-10.667,10.667-10.667
				s10.667,4.771,10.667,10.667v32h32c5.896,0,10.667,4.771,10.667,10.667S304.563,405.333,298.667,405.333z" fill="#fff" />
    <path d="M501.333,170.667h-85.986L294.947,4.467c-3.424-4.794-10.086-5.904-14.88-2.479l-17.359,12.401
				c-4.794,3.424-5.904,10.086-2.479,14.879l102.434,141.398h-221.75L243.345,29.268c3.424-4.793,2.315-11.454-2.479-14.879
				L223.507,1.988c-4.794-3.424-11.456-2.315-14.88,2.479L88.225,170.667H10.667C4.771,170.667,0,175.438,0,181.333v21.333
				c0,5.896,4.771,10.667,10.667,10.667h21.228l54.699,156.281c2.51,7.146,6.833,13.688,13.219,19.99
				c2.948,2.896,7.281,3.823,11.188,2.406c3.885-1.427,6.583-4.979,6.927-9.104C123.927,311.74,184.573,256,256,256
				c71.438,0,132.083,55.74,138.073,126.906c0.344,4.125,3.042,7.677,6.927,9.104c1.208,0.448,2.458,0.667,3.698,0.667
				c2.75,0,5.458-1.073,7.49-3.073c6.385-6.302,10.708-12.844,13.219-19.99l54.699-156.281h21.228
				c5.896,0,10.667-4.771,10.667-10.667v-21.333C512,175.438,507.229,170.667,501.333,170.667z" fill="#fff" />
</svg>
