<svg height="450pt" viewBox="-4 0 450 450.84649" width="450pt" xmlns="http://www.w3.org/2000/svg"><path d="m30.449219 261.347656 203.65625-203.636718 33.945312 33.949218-203.65625 203.636719zm0 0"/><path d="m.421875 325.328125 49.960937-21.410156-28.542968-28.550781zm0 0" fill="#8F4200"/><path d="m318.953125 40.734375c9.367187-9.371094 9.367187-24.5625 0-33.9375-9.5-9.0625-24.445313-9.0625-33.945313 0l-16.96875 16.96875 33.945313 33.945313zm0 0"/><path d="m245.414062 46.398438 11.316407-11.316407 33.9375 33.945313-11.3125 11.3125zm0 0" fill="#8F4200"/><path d="m402.902344 114.847656h40v-84.6875l-420.6875 420.6875h420.6875v-32h-40c-4.417969 0-8-3.582031-8-8 0-4.417968 3.582031-8 8-8h40v-32h-24c-4.417969 0-8-3.582031-8-8 0-4.417968 3.582031-8 8-8h24v-32h-40c-4.417969 0-8-3.582031-8-8 0-4.417968 3.582031-8 8-8h40v-32h-24c-4.417969 0-8-3.582031-8-8 0-4.417968 3.582031-8 8-8h24v-32h-40c-4.417969 0-8-3.582031-8-8 0-4.417968 3.582031-8 8-8h40v-32h-24c-4.417969 0-8-3.582031-8-8 0-4.417968 3.582031-8 8-8h24v-32h-40c-4.417969 0-8-3.582031-8-8 0-4.417968 3.582031-8 8-8zm-24 264c0 4.417969-3.582032 8-8 8h-174.863282c-3.234374 0-6.152343-1.949218-7.390624-4.941406-1.238282-2.988281-.550782-6.429688 1.734374-8.714844l174.863282-174.855468c2.289062-2.289063 5.730468-2.972657 8.71875-1.734376 2.988281 1.238282 4.9375 4.152344 4.9375 7.390626zm0 0" fill="#8F4200"/></svg>